<?xml version="1.0" standalone="no"?>
<!DOCTYPE svg PUBLIC "-//W3C//DTD SVG 20010904//EN"
 "http://www.w3.org/TR/2001/REC-SVG-20010904/DTD/svg10.dtd">
<svg version="1.0" xmlns="http://www.w3.org/2000/svg"
 width="651.000000pt" height="651.000000pt" viewBox="0 0 651.000000 651.000000"
 preserveAspectRatio="xMidYMid meet">
<metadata>
Created by potrace 1.14, written by Peter Selinger 2001-2017
</metadata>
<g transform="translate(0.000000,651.000000) scale(0.100000,-0.100000)"
fill="#000000" stroke="none">
<path d="M4480 6504 c-81 -8 -211 -35 -294 -61 -218 -68 -300 -149 -299 -293
0 -77 22 -140 91 -260 32 -55 45 -87 38 -91 -6 -4 -36 -9 -66 -13 -182 -23
-387 -104 -567 -223 -95 -63 -166 -125 -280 -244 -46 -47 -108 -106 -139 -130
-73 -57 -303 -251 -479 -404 -153 -133 -207 -180 -320 -275 -42 -35 -83 -77
-91 -92 -31 -59 -5 -141 53 -171 37 -19 183 -37 305 -37 53 0 99 -4 102 -8 3
-5 -13 -62 -34 -128 -22 -65 -40 -127 -40 -137 0 -9 -58 -127 -130 -260 -76
-142 -130 -255 -130 -271 0 -45 47 -83 112 -91 30 -4 61 -10 67 -15 10 -6 3
-37 -30 -129 l-42 -122 20 -27 c42 -57 49 -96 30 -170 -24 -93 -22 -153 7
-210 29 -58 48 -75 111 -104 45 -21 64 -23 190 -22 81 0 185 8 249 18 59 10
112 14 116 9 14 -15 110 -331 110 -362 0 -41 -22 -91 -51 -118 -13 -11 -78
-60 -144 -109 -66 -48 -232 -168 -368 -268 -137 -100 -273 -198 -303 -219 -34
-24 -56 -47 -60 -64 -10 -36 9 -124 57 -266 150 -453 489 -819 932 -1007 112
-47 287 -94 409 -110 107 -13 305 -13 405 1 479 65 910 347 1170 764 60 96
130 238 157 320 25 77 26 78 71 55 46 -24 102 -26 150 -6 40 17 38 21 36 -74
-4 -145 -53 -324 -126 -457 -63 -115 -142 -209 -272 -325 -60 -54 -70 -92 -31
-128 27 -25 71 -26 176 -4 340 70 607 328 689 665 26 107 23 306 -6 414 -55
204 -179 388 -340 500 -39 28 -71 52 -71 55 0 3 24 15 54 28 77 33 111 72 111
126 0 54 -33 100 -108 149 -111 74 -252 96 -379 61 l-58 -17 -41 37 c-52 48
-118 76 -194 83 l-60 6 -3 173 -3 174 29 43 c43 62 66 111 101 219 71 214 179
334 521 577 162 116 233 174 317 262 269 281 416 726 400 1204 -6 171 -27 279
-84 430 -183 487 -622 893 -1156 1070 -72 24 -175 51 -227 59 -101 17 -285 27
-360 20z m353 -186 c107 -22 184 -45 292 -88 77 -30 213 -99 245 -124 8 -6 31
-20 50 -30 103 -57 341 -269 416 -371 16 -22 37 -49 47 -59 16 -19 21 -31 18
-48 0 -5 2 -7 7 -5 4 1 9 -3 11 -8 3 -6 9 -14 14 -20 17 -20 52 -82 88 -155
95 -197 136 -402 125 -628 -16 -309 -106 -604 -249 -817 -58 -86 -205 -229
-331 -321 -60 -43 -145 -106 -190 -138 -223 -163 -361 -317 -427 -477 l-34
-82 -11 94 c-6 52 -19 125 -29 162 -9 38 -15 69 -14 71 106 78 161 121 187
145 19 17 38 28 44 25 7 -5 8 -2 3 5 -5 8 10 29 42 59 67 65 131 143 192 237
29 44 57 79 62 78 4 -2 6 3 3 10 -3 8 6 36 20 63 82 164 127 355 129 544 1
190 -14 293 -69 455 -36 109 -118 268 -174 339 -109 137 -202 226 -333 317
-100 70 -87 62 -197 113 -162 74 -314 118 -455 132 -38 4 -76 10 -82 13 -22
12 -149 220 -168 274 -26 78 -16 119 38 150 71 41 205 80 347 100 74 11 301 2
383 -15z m-515 -788 c138 -15 263 -44 364 -84 91 -36 241 -116 317 -170 48
-33 124 -108 128 -125 2 -6 23 -31 48 -56 49 -50 105 -159 151 -290 33 -95 35
-168 10 -330 -29 -193 -76 -324 -172 -486 -66 -110 -114 -165 -246 -282 -63
-56 -148 -114 -153 -104 -6 15 -78 156 -85 167 -5 8 -35 57 -66 109 -31 52
-61 99 -66 105 -5 6 -33 43 -61 81 -122 166 -297 350 -447 469 -47 38 -84 72
-83 77 2 5 0 8 -5 7 -7 -3 -82 40 -92 52 -8 10 -113 76 -148 94 -18 9 -35 23
-38 30 -3 8 9 58 26 113 17 55 32 108 34 119 2 10 12 51 22 89 11 43 20 127
23 219 l6 149 50 15 c136 39 307 50 483 32z m-711 -205 c-4 -94 -12 -157 -30
-226 -32 -123 -85 -295 -103 -335 -23 -52 -9 -86 60 -146 33 -29 83 -69 109
-88 26 -19 63 -46 82 -60 19 -14 57 -41 85 -60 29 -19 65 -47 81 -62 33 -31
149 -111 149 -103 0 3 8 -3 18 -12 29 -28 19 -26 -34 6 -133 80 -299 162 -384
190 -34 11 -99 25 -145 32 -73 9 -97 8 -192 -10 -360 -68 -709 -95 -958 -74
-69 5 -76 8 -59 20 10 7 33 26 49 41 66 60 122 101 130 94 5 -4 5 -2 2 5 -4 6
15 29 45 54 29 23 60 49 68 58 9 9 42 38 75 65 33 27 65 55 70 61 6 6 42 37
80 70 39 32 72 61 75 64 6 8 107 89 186 151 31 25 112 99 178 165 142 141 164
160 242 211 91 59 107 65 117 40 5 -12 7 -79 4 -151z m1770 -892 c-2 -21 -4
-6 -4 32 0 39 2 55 4 38 2 -18 2 -50 0 -70z m-1806 -159 c83 -25 328 -150 399
-204 19 -15 73 -50 119 -79 172 -106 361 -268 439 -377 93 -128 182 -331 218
-494 24 -111 64 -559 64 -728 0 -83 -2 -93 -17 -90 -13 2 -21 24 -33 93 -66
365 -267 663 -580 859 -189 118 -223 143 -306 219 -199 184 -342 447 -388 712
-9 50 -16 93 -16 98 0 12 43 8 101 -9z m-232 -71 c22 -141 72 -304 129 -417
22 -45 23 -54 13 -104 -15 -78 -14 -256 4 -346 8 -42 28 -115 44 -164 l30 -87
-24 -36 c-13 -20 -49 -64 -81 -98 -182 -197 -391 -281 -739 -297 -165 -8 -210
2 -231 52 -13 32 -13 42 7 115 20 76 21 116 4 176 -7 22 -7 22 47 7 75 -20
198 -17 198 5 0 3 -19 12 -42 19 -23 7 -66 29 -96 49 -37 25 -69 38 -103 41
-27 2 -49 7 -49 11 0 3 7 39 17 79 l17 72 46 0 c54 0 84 25 100 81 15 52 13
61 -9 49 -11 -5 -32 -10 -48 -10 -49 0 -223 33 -223 43 0 5 52 106 116 225 64
120 118 233 121 252 3 19 23 90 45 157 46 142 16 125 248 143 80 6 204 21 275
34 189 34 170 39 184 -51z m1852 -356 c-10 -9 -11 -8 -5 6 3 10 9 15 12 12 3
-3 0 -11 -7 -18z m-1231 -618 c63 -42 146 -96 185 -120 90 -56 239 -204 297
-294 110 -169 150 -281 177 -500 26 -199 29 -267 15 -272 -6 -2 -16 21 -23 54
-57 259 -238 486 -491 613 -297 149 -487 429 -507 744 l-6 90 119 -120 c88
-90 148 -140 234 -195z m-384 -422 c2 -122 56 -269 137 -375 77 -99 166 -164
290 -212 108 -42 133 -56 190 -109 36 -33 61 -69 89 -129 44 -96 76 -122 150
-122 39 0 54 6 82 31 29 25 39 28 55 20 11 -6 32 -11 46 -11 l26 0 -22 -32
c-13 -18 -66 -76 -119 -128 -418 -414 -1039 -526 -1570 -284 -80 37 -230 124
-229 133 0 4 106 83 236 176 258 186 315 240 338 318 26 87 19 138 -40 322
-30 93 -55 174 -55 180 0 5 26 21 58 35 81 35 218 129 282 194 30 31 54 56 55
56 0 0 0 -28 1 -63z m164 -2 c33 -53 125 -130 199 -165 255 -122 325 -176 385
-297 28 -56 93 -264 102 -326 5 -39 3 -37 -34 38 -66 132 -167 219 -319 276
-100 37 -159 73 -219 134 -84 87 -134 194 -148 318 -7 66 3 72 34 22z m1347
-721 c45 -34 65 -77 65 -136 -1 -62 -31 -112 -83 -138 -114 -59 -239 16 -239
143 0 68 28 113 90 145 56 29 118 24 167 -14z m435 -68 c21 -8 50 -22 65 -32
l28 -18 -35 -14 c-51 -21 -147 -11 -216 23 -75 37 -57 52 61 53 33 1 77 -5 97
-12z m-142 -254 c109 -109 156 -224 148 -369 -5 -102 -15 -115 -64 -88 -66 35
-146 153 -180 264 -26 86 -15 261 17 261 6 0 41 -30 79 -68z m-602 -101 c-123
-205 -348 -416 -557 -520 -197 -99 -379 -141 -606 -141 -165 0 -280 18 -422
65 -202 68 -359 164 -515 316 -57 56 -92 94 -78 85 87 -56 220 -132 273 -156
370 -167 827 -179 1203 -30 223 89 440 238 596 409 l63 70 32 -31 33 -31 -22
-36z m262 -34 c0 -18 -59 -185 -86 -242 -91 -196 -231 -379 -389 -512 -180
-151 -401 -258 -630 -306 -135 -28 -390 -30 -520 -4 -417 84 -753 325 -975
698 -27 46 -50 89 -50 95 0 7 11 19 25 28 l26 17 76 -81 c202 -215 447 -361
723 -431 570 -146 1144 44 1543 509 15 18 59 79 97 135 l68 102 46 0 c25 0 46
-3 46 -8z m717 -151 c275 -363 162 -886 -237 -1091 l-34 -18 17 24 c122 173
205 366 237 555 20 115 8 368 -23 484 -14 52 -29 104 -33 115 -7 18 -6 19 9 6
10 -8 38 -41 64 -75z m-527 -145 l22 -32 -37 -107 c-131 -379 -392 -688 -735
-869 -228 -120 -457 -170 -727 -160 -368 14 -694 155 -959 416 -82 81 -184
201 -184 217 0 4 21 -12 46 -35 106 -99 335 -229 505 -289 178 -63 272 -77
504 -77 183 0 223 3 313 23 203 45 383 122 548 232 268 179 481 445 604 753
l23 58 27 -49 c15 -27 37 -64 50 -81z"/>
<path d="M5288 3499 c-16 -9 -15 -39 2 -39 7 0 22 41 17 46 -1 2 -10 -2 -19
-7z"/>
<path d="M2960 4835 c-82 -59 -149 -116 -154 -129 -13 -34 -2 -54 36 -64 38
-10 66 -1 119 40 20 15 42 28 48 28 6 0 11 5 11 11 0 6 7 9 15 5 8 -3 15 -1
15 3 0 5 28 28 62 51 46 30 68 40 86 35 17 -4 22 -2 16 6 -5 9 3 10 29 5 50
-9 77 9 77 52 0 41 -21 50 -133 58 l-82 5 -145 -106z"/>
<path d="M2766 3819 c-21 -31 -7 -59 48 -93 40 -25 60 -30 129 -34 75 -3 87
-1 137 25 51 26 55 31 55 63 0 30 -3 35 -26 38 -15 2 -42 -6 -60 -17 -45 -28
-126 -28 -179 -1 -21 11 -41 24 -45 30 -11 17 -43 11 -59 -11z"/>
<path d="M998 3460 c-20 -11 -44 -30 -52 -42 -13 -18 -27 -23 -72 -25 -105 -4
-149 -27 -249 -127 -49 -50 -124 -118 -165 -151 -179 -143 -244 -201 -256
-232 -17 -39 -18 -91 -4 -129 8 -20 7 -41 -1 -76 -12 -43 -11 -53 9 -100 15
-38 20 -64 16 -90 -5 -28 -1 -48 15 -79 21 -39 22 -48 12 -105 -15 -86 -4
-127 78 -298 58 -119 77 -150 120 -188 87 -78 148 -81 305 -13 92 40 143 81
172 137 21 41 30 147 16 188 -9 25 -8 38 4 62 14 26 18 29 47 21 114 -28 203
35 201 142 0 29 -5 59 -12 67 -6 8 14 2 46 -14 144 -71 475 -126 539 -90 16 9
25 28 33 70 11 55 14 59 58 82 26 14 77 54 113 90 89 88 130 173 170 354 34
155 31 181 -20 230 -30 29 -53 35 -669 167 l-203 44 -16 34 c-9 18 -34 46 -56
62 -49 36 -121 39 -179 9z m122 -75 c36 -19 41 -36 17 -56 -19 -15 -24 -14
-69 14 -48 30 -49 31 -26 43 30 17 43 17 78 -1z m-126 -134 c17 -11 42 -31 54
-44 22 -23 23 -28 12 -88 -6 -34 -12 -70 -13 -78 0 -9 -10 -16 -23 -16 -12 0
-20 3 -18 6 2 4 1 27 -2 52 -9 63 -53 108 -134 136 -95 33 -100 37 -60 50 49
15 146 5 184 -18z m464 -57 c114 -25 279 -61 367 -81 88 -19 171 -37 184 -38
43 -6 44 -19 2 -115 -22 -51 -37 -98 -34 -103 3 -6 1 -7 -4 -4 -6 4 -22 -10
-35 -31 -96 -143 -224 -216 -378 -214 -98 2 -157 17 -252 62 -84 40 -86 42
-114 103 -26 56 -29 72 -29 167 0 65 7 136 18 185 26 113 26 115 48 115 11 0
113 -20 227 -46z m-726 -63 c13 -5 49 -19 80 -31 61 -23 76 -41 53 -64 -12
-12 -20 -11 -55 6 -65 32 -112 20 -234 -63 -110 -74 -134 -104 -115 -142 28
-53 51 -50 184 28 62 36 120 65 130 65 30 0 210 -98 227 -124 15 -22 1 -30
-47 -27 -28 1 -69 13 -95 27 -24 13 -53 24 -63 24 -19 0 -166 -71 -209 -102
-19 -13 -28 -28 -28 -47 0 -58 37 -62 202 -20 127 32 159 25 285 -58 53 -35
66 -53 57 -78 -5 -12 -13 -9 -39 14 -49 42 -96 55 -184 48 -86 -7 -235 -49
-263 -73 -22 -21 -23 -52 -1 -76 21 -24 41 -23 142 7 119 35 171 40 207 22 48
-25 126 -111 118 -130 -10 -27 -45 -20 -103 22 -54 38 -55 38 -102 26 -59 -16
-69 -22 -69 -44 0 -22 19 -41 43 -41 12 0 17 -5 14 -12 -3 -7 -16 -36 -28 -65
-21 -48 -22 -56 -9 -106 16 -69 7 -118 -29 -155 -36 -35 -168 -92 -216 -92
-61 0 -106 63 -195 270 -29 67 -32 81 -27 140 4 36 9 75 13 86 4 15 -3 32 -25
57 -34 39 -37 53 -16 81 22 30 18 53 -15 83 -35 31 -37 46 -10 104 22 49 25
90 9 106 -6 6 -8 19 -4 29 7 22 364 314 382 314 7 0 22 -4 35 -9z m305 -188
c-3 -10 -5 -4 -5 12 0 17 2 24 5 18 2 -7 2 -21 0 -30z"/>
<path d="M2020 1211 c-57 -60 -156 -213 -210 -325 -92 -190 -145 -393 -157
-594 -6 -105 -5 -108 20 -137 l25 -30 452 -3 c487 -3 483 -3 510 49 20 37 3
66 -73 122 -144 107 -275 274 -342 439 -43 106 -74 242 -81 359 -6 87 -11 115
-26 135 -30 38 -73 32 -118 -15z m14 -289 c30 -194 162 -458 297 -597 21 -23
39 -44 39 -48 0 -9 -558 -9 -564 1 -2 4 0 48 5 97 18 163 57 292 141 463 33
67 64 122 68 122 4 0 10 -17 14 -38z"/>
</g>
</svg>
